<svg width="127" height="54" viewBox="0 0 127 54" fill="none" xmlns="http://www.w3.org/2000/svg">
<path d="M61.2 14V3.35H68.295V4.835H62.88V8.015H67.41V9.41H62.88V14H61.2ZM69.6765 14V6.155H71.3265V14H69.6765ZM69.6765 4.865V3.05H71.3265V4.865H69.6765ZM80.3443 14H78.6943V9.605C78.6943 8.875 78.5743 8.34 78.3343 8C78.1043 7.66 77.7593 7.49 77.2993 7.49C76.9793 7.49 76.6593 7.57 76.3393 7.73C76.0293 7.89 75.7493 8.11 75.4993 8.39C75.2493 8.66 75.0693 8.975 74.9593 9.335V14H73.3093V6.155H74.8093V7.73C75.0093 7.38 75.2693 7.08 75.5893 6.83C75.9193 6.57 76.2893 6.37 76.6993 6.23C77.1093 6.09 77.5443 6.02 78.0043 6.02C78.4743 6.02 78.8593 6.105 79.1593 6.275C79.4693 6.445 79.7093 6.68 79.8793 6.98C80.0593 7.27 80.1793 7.61 80.2393 8C80.3093 8.38 80.3443 8.785 80.3443 9.215V14ZM81.6895 11.705C81.6895 11.205 81.8295 10.77 82.1095 10.4C82.3995 10.02 82.7945 9.73 83.2945 9.53C83.7945 9.32 84.3745 9.215 85.0345 9.215C85.3845 9.215 85.7395 9.24 86.0995 9.29C86.4695 9.34 86.7945 9.42 87.0745 9.53V9.035C87.0745 8.485 86.9095 8.055 86.5795 7.745C86.2495 7.435 85.7745 7.28 85.1545 7.28C84.7145 7.28 84.2995 7.36 83.9095 7.52C83.5195 7.67 83.1045 7.885 82.6645 8.165L82.1095 7.055C82.6295 6.705 83.1495 6.445 83.6695 6.275C84.1995 6.105 84.7545 6.02 85.3345 6.02C86.3845 6.02 87.2095 6.3 87.8095 6.86C88.4195 7.41 88.7245 8.195 88.7245 9.215V12.14C88.7245 12.33 88.7545 12.465 88.8145 12.545C88.8845 12.625 88.9995 12.67 89.1595 12.68V14C89.0095 14.03 88.8745 14.05 88.7545 14.06C88.6345 14.07 88.5345 14.075 88.4545 14.075C88.1045 14.075 87.8395 13.99 87.6595 13.82C87.4795 13.65 87.3745 13.45 87.3445 13.22L87.2995 12.77C86.9595 13.21 86.5245 13.55 85.9945 13.79C85.4645 14.03 84.9295 14.15 84.3895 14.15C83.8695 14.15 83.4045 14.045 82.9945 13.835C82.5845 13.615 82.2645 13.32 82.0345 12.95C81.8045 12.58 81.6895 12.165 81.6895 11.705ZM86.6845 12.185C86.8045 12.055 86.8995 11.925 86.9695 11.795C87.0395 11.665 87.0745 11.55 87.0745 11.45V10.55C86.7945 10.44 86.4995 10.36 86.1895 10.31C85.8795 10.25 85.5745 10.22 85.2745 10.22C84.6745 10.22 84.1845 10.34 83.8045 10.58C83.4345 10.82 83.2495 11.15 83.2495 11.57C83.2495 11.8 83.3095 12.02 83.4295 12.23C83.5595 12.44 83.7395 12.61 83.9695 12.74C84.2095 12.87 84.5045 12.935 84.8545 12.935C85.2145 12.935 85.5595 12.865 85.8895 12.725C86.2195 12.585 86.4845 12.405 86.6845 12.185ZM97.7613 14H96.1113V9.605C96.1113 8.875 95.9913 8.34 95.7513 8C95.5213 7.66 95.1763 7.49 94.7163 7.49C94.3963 7.49 94.0763 7.57 93.7563 7.73C93.4463 7.89 93.1663 8.11 92.9163 8.39C92.6663 8.66 92.4863 8.975 92.3763 9.335V14H90.7263V6.155H92.2263V7.73C92.4263 7.38 92.6863 7.08 93.0063 6.83C93.3363 6.57 93.7063 6.37 94.1163 6.23C94.5263 6.09 94.9613 6.02 95.4213 6.02C95.8913 6.02 96.2763 6.105 96.5763 6.275C96.8863 6.445 97.1263 6.68 97.2963 6.98C97.4763 7.27 97.5963 7.61 97.6563 8C97.7263 8.38 97.7613 8.785 97.7613 9.215V14ZM103.232 14.15C102.622 14.15 102.067 14.045 101.567 13.835C101.077 13.615 100.652 13.315 100.292 12.935C99.9315 12.555 99.6515 12.12 99.4515 11.63C99.2615 11.14 99.1665 10.62 99.1665 10.07C99.1665 9.33 99.3315 8.655 99.6615 8.045C100.002 7.435 100.472 6.945 101.072 6.575C101.682 6.205 102.402 6.02 103.232 6.02C104.032 6.02 104.727 6.2 105.317 6.56C105.917 6.91 106.357 7.38 106.637 7.97L105.032 8.48C104.852 8.15 104.597 7.895 104.267 7.715C103.947 7.525 103.592 7.43 103.202 7.43C102.762 7.43 102.362 7.545 102.002 7.775C101.652 7.995 101.372 8.305 101.162 8.705C100.962 9.095 100.862 9.55 100.862 10.07C100.862 10.57 100.967 11.025 101.177 11.435C101.387 11.835 101.667 12.155 102.017 12.395C102.377 12.625 102.777 12.74 103.217 12.74C103.487 12.74 103.747 12.695 103.997 12.605C104.257 12.505 104.482 12.375 104.672 12.215C104.862 12.045 104.997 11.86 105.077 11.66L106.697 12.14C106.527 12.53 106.272 12.875 105.932 13.175C105.602 13.475 105.207 13.715 104.747 13.895C104.297 14.065 103.792 14.15 103.232 14.15ZM108.055 14V6.155H109.705V14H108.055ZM108.055 4.865V3.05H109.705V4.865H108.055ZM111.118 11.705C111.118 11.205 111.258 10.77 111.538 10.4C111.828 10.02 112.223 9.73 112.723 9.53C113.223 9.32 113.803 9.215 114.463 9.215C114.813 9.215 115.168 9.24 115.528 9.29C115.898 9.34 116.223 9.42 116.503 9.53V9.035C116.503 8.485 116.338 8.055 116.008 7.745C115.678 7.435 115.203 7.28 114.583 7.28C114.143 7.28 113.728 7.36 113.338 7.52C112.948 7.67 112.533 7.885 112.093 8.165L111.538 7.055C112.058 6.705 112.578 6.445 113.098 6.275C113.628 6.105 114.183 6.02 114.763 6.02C115.813 6.02 116.638 6.3 117.238 6.86C117.848 7.41 118.153 8.195 118.153 9.215V12.14C118.153 12.33 118.183 12.465 118.243 12.545C118.313 12.625 118.428 12.67 118.588 12.68V14C118.438 14.03 118.303 14.05 118.183 14.06C118.063 14.07 117.963 14.075 117.883 14.075C117.533 14.075 117.268 13.99 117.088 13.82C116.908 13.65 116.803 13.45 116.773 13.22L116.728 12.77C116.388 13.21 115.953 13.55 115.423 13.79C114.893 14.03 114.358 14.15 113.818 14.15C113.298 14.15 112.833 14.045 112.423 13.835C112.013 13.615 111.693 13.32 111.463 12.95C111.233 12.58 111.118 12.165 111.118 11.705ZM116.113 12.185C116.233 12.055 116.328 11.925 116.398 11.795C116.468 11.665 116.503 11.55 116.503 11.45V10.55C116.223 10.44 115.928 10.36 115.618 10.31C115.308 10.25 115.003 10.22 114.703 10.22C114.103 10.22 113.613 10.34 113.233 10.58C112.863 10.82 112.678 11.15 112.678 11.57C112.678 11.8 112.738 12.02 112.858 12.23C112.988 12.44 113.168 12.61 113.398 12.74C113.638 12.87 113.933 12.935 114.283 12.935C114.643 12.935 114.988 12.865 115.318 12.725C115.648 12.585 115.913 12.405 116.113 12.185ZM120.17 3.05H121.82V11.735C121.82 12.135 121.88 12.39 122 12.5C122.12 12.61 122.27 12.665 122.45 12.665C122.65 12.665 122.835 12.645 123.005 12.605C123.185 12.565 123.34 12.515 123.47 12.455L123.71 13.76C123.47 13.86 123.185 13.945 122.855 14.015C122.525 14.085 122.23 14.12 121.97 14.12C121.41 14.12 120.97 13.965 120.65 13.655C120.33 13.335 120.17 12.895 120.17 12.335V3.05ZM60.525 26.6C60.525 25.95 60.64 25.315 60.87 24.695C61.1 24.065 61.435 23.495 61.875 22.985C62.325 22.465 62.87 22.055 63.51 21.755C64.15 21.445 64.875 21.29 65.685 21.29C66.645 21.29 67.475 21.51 68.175 21.95C68.875 22.38 69.395 22.935 69.735 23.615L68.415 24.5C68.215 24.07 67.96 23.73 67.65 23.48C67.35 23.23 67.02 23.055 66.66 22.955C66.31 22.855 65.965 22.805 65.625 22.805C65.065 22.805 64.575 22.92 64.155 23.15C63.735 23.37 63.38 23.665 63.09 24.035C62.81 24.405 62.595 24.82 62.445 25.28C62.305 25.74 62.235 26.2 62.235 26.66C62.235 27.17 62.32 27.665 62.49 28.145C62.66 28.615 62.895 29.035 63.195 29.405C63.505 29.765 63.87 30.05 64.29 30.26C64.71 30.47 65.17 30.575 65.67 30.575C66.01 30.575 66.365 30.515 66.735 30.395C67.105 30.275 67.445 30.09 67.755 29.84C68.075 29.58 68.325 29.24 68.505 28.82L69.9 29.615C69.68 30.145 69.335 30.595 68.865 30.965C68.405 31.335 67.885 31.615 67.305 31.805C66.735 31.995 66.17 32.09 65.61 32.09C64.86 32.09 64.175 31.935 63.555 31.625C62.935 31.305 62.4 30.885 61.95 30.365C61.5 29.835 61.15 29.245 60.9 28.595C60.65 27.935 60.525 27.27 60.525 26.6ZM74.7543 32.15C74.1343 32.15 73.5793 32.045 73.0893 31.835C72.5993 31.615 72.1743 31.315 71.8143 30.935C71.4643 30.555 71.1943 30.125 71.0043 29.645C70.8143 29.155 70.7193 28.635 70.7193 28.085C70.7193 27.535 70.8143 27.015 71.0043 26.525C71.1943 26.035 71.4643 25.605 71.8143 25.235C72.1743 24.855 72.5993 24.56 73.0893 24.35C73.5893 24.13 74.1443 24.02 74.7543 24.02C75.3643 24.02 75.9143 24.13 76.4043 24.35C76.9043 24.56 77.3293 24.855 77.6793 25.235C78.0393 25.605 78.3143 26.035 78.5043 26.525C78.6943 27.015 78.7893 27.535 78.7893 28.085C78.7893 28.635 78.6943 29.155 78.5043 29.645C78.3143 30.125 78.0393 30.555 77.6793 30.935C77.3293 31.315 76.9043 31.615 76.4043 31.835C75.9143 32.045 75.3643 32.15 74.7543 32.15ZM72.4143 28.1C72.4143 28.6 72.5193 29.05 72.7293 29.45C72.9393 29.85 73.2193 30.165 73.5693 30.395C73.9193 30.625 74.3143 30.74 74.7543 30.74C75.1843 30.74 75.5743 30.625 75.9243 30.395C76.2843 30.155 76.5693 29.835 76.7793 29.435C76.9893 29.025 77.0943 28.575 77.0943 28.085C77.0943 27.585 76.9893 27.135 76.7793 26.735C76.5693 26.335 76.2843 26.02 75.9243 25.79C75.5743 25.55 75.1843 25.43 74.7543 25.43C74.3143 25.43 73.9193 25.55 73.5693 25.79C73.2193 26.03 72.9393 26.35 72.7293 26.75C72.5193 27.14 72.4143 27.59 72.4143 28.1ZM87.2877 32H85.6377V27.605C85.6377 26.875 85.5177 26.34 85.2777 26C85.0477 25.66 84.7027 25.49 84.2427 25.49C83.9227 25.49 83.6027 25.57 83.2827 25.73C82.9727 25.89 82.6927 26.11 82.4427 26.39C82.1927 26.66 82.0127 26.975 81.9027 27.335V32H80.2527V24.155H81.7527V25.73C81.9527 25.38 82.2127 25.08 82.5327 24.83C82.8627 24.57 83.2327 24.37 83.6427 24.23C84.0527 24.09 84.4877 24.02 84.9477 24.02C85.4177 24.02 85.8027 24.105 86.1027 24.275C86.4127 24.445 86.6527 24.68 86.8227 24.98C87.0027 25.27 87.1227 25.61 87.1827 26C87.2527 26.38 87.2877 26.785 87.2877 27.215V32ZM93.5093 31.595C93.3693 31.665 93.1943 31.74 92.9843 31.82C92.7743 31.9 92.5343 31.97 92.2643 32.03C92.0043 32.09 91.7343 32.12 91.4543 32.12C91.1143 32.12 90.7993 32.06 90.5093 31.94C90.2193 31.82 89.9843 31.63 89.8043 31.37C89.6343 31.1 89.5493 30.755 89.5493 30.335V25.43H88.5143V24.155H89.5493V21.575H91.1993V24.155H92.9093V25.43H91.1993V29.81C91.2193 30.08 91.3043 30.28 91.4543 30.41C91.6143 30.54 91.8093 30.605 92.0393 30.605C92.2693 30.605 92.4893 30.565 92.6993 30.485C92.9093 30.405 93.0643 30.34 93.1643 30.29L93.5093 31.595ZM99.0621 25.58C98.4221 25.59 97.8521 25.735 97.3521 26.015C96.8621 26.295 96.5121 26.69 96.3021 27.2V32H94.6521V24.155H96.1821V25.91C96.4521 25.37 96.8071 24.94 97.2471 24.62C97.6871 24.29 98.1521 24.11 98.6421 24.08C98.7421 24.08 98.8221 24.08 98.8821 24.08C98.9521 24.08 99.0121 24.085 99.0621 24.095V25.58ZM103.641 32.15C103.021 32.15 102.466 32.045 101.976 31.835C101.486 31.615 101.061 31.315 100.701 30.935C100.351 30.555 100.081 30.125 99.891 29.645C99.701 29.155 99.606 28.635 99.606 28.085C99.606 27.535 99.701 27.015 99.891 26.525C100.081 26.035 100.351 25.605 100.701 25.235C101.061 24.855 101.486 24.56 101.976 24.35C102.476 24.13 103.031 24.02 103.641 24.02C104.251 24.02 104.801 24.13 105.291 24.35C105.791 24.56 106.216 24.855 106.566 25.235C106.926 25.605 107.201 26.035 107.391 26.525C107.581 27.015 107.676 27.535 107.676 28.085C107.676 28.635 107.581 29.155 107.391 29.645C107.201 30.125 106.926 30.555 106.566 30.935C106.216 31.315 105.791 31.615 105.291 31.835C104.801 32.045 104.251 32.15 103.641 32.15ZM101.301 28.1C101.301 28.6 101.406 29.05 101.616 29.45C101.826 29.85 102.106 30.165 102.456 30.395C102.806 30.625 103.201 30.74 103.641 30.74C104.071 30.74 104.461 30.625 104.811 30.395C105.171 30.155 105.456 29.835 105.666 29.435C105.876 29.025 105.981 28.575 105.981 28.085C105.981 27.585 105.876 27.135 105.666 26.735C105.456 26.335 105.171 26.02 104.811 25.79C104.461 25.55 104.071 25.43 103.641 25.43C103.201 25.43 102.806 25.55 102.456 25.79C102.106 26.03 101.826 26.35 101.616 26.75C101.406 27.14 101.301 27.59 101.301 28.1ZM109.154 21.05H110.804V29.735C110.804 30.135 110.864 30.39 110.984 30.5C111.104 30.61 111.254 30.665 111.434 30.665C111.634 30.665 111.819 30.645 111.989 30.605C112.169 30.565 112.324 30.515 112.454 30.455L112.694 31.76C112.454 31.86 112.169 31.945 111.839 32.015C111.509 32.085 111.214 32.12 110.954 32.12C110.394 32.12 109.954 31.965 109.634 31.655C109.314 31.335 109.154 30.895 109.154 30.335V21.05ZM62.88 42.47V50H61.2V39.35H62.58L68.61 47.045V39.365H70.305V50H68.835L62.88 42.47ZM75.9122 50.15C75.3022 50.15 74.7472 50.045 74.2472 49.835C73.7572 49.615 73.3322 49.32 72.9722 48.95C72.6122 48.57 72.3322 48.14 72.1322 47.66C71.9422 47.17 71.8472 46.65 71.8472 46.1C71.8472 45.36 72.0172 44.685 72.3572 44.075C72.6972 43.455 73.1722 42.96 73.7822 42.59C74.3922 42.21 75.1072 42.02 75.9272 42.02C76.7472 42.02 77.4522 42.21 78.0422 42.59C78.6422 42.96 79.1072 43.45 79.4372 44.06C79.7672 44.67 79.9322 45.325 79.9322 46.025C79.9322 46.145 79.9272 46.26 79.9172 46.37C79.9072 46.47 79.8972 46.555 79.8872 46.625H73.6022C73.6322 47.085 73.7572 47.49 73.9772 47.84C74.2072 48.18 74.4972 48.45 74.8472 48.65C75.1972 48.84 75.5722 48.935 75.9722 48.935C76.4122 48.935 76.8272 48.825 77.2172 48.605C77.6172 48.385 77.8872 48.095 78.0272 47.735L79.4372 48.14C79.2672 48.52 79.0072 48.865 78.6572 49.175C78.3172 49.475 77.9122 49.715 77.4422 49.895C76.9722 50.065 76.4622 50.15 75.9122 50.15ZM73.5572 45.53H78.2972C78.2672 45.08 78.1372 44.685 77.9072 44.345C77.6872 43.995 77.4022 43.725 77.0522 43.535C76.7122 43.335 76.3322 43.235 75.9122 43.235C75.5022 43.235 75.1222 43.335 74.7722 43.535C74.4322 43.725 74.1522 43.995 73.9322 44.345C73.7122 44.685 73.5872 45.08 73.5572 45.53ZM85.5698 49.595C85.4298 49.665 85.2548 49.74 85.0448 49.82C84.8348 49.9 84.5948 49.97 84.3248 50.03C84.0648 50.09 83.7948 50.12 83.5148 50.12C83.1748 50.12 82.8598 50.06 82.5698 49.94C82.2798 49.82 82.0448 49.63 81.8648 49.37C81.6948 49.1 81.6098 48.755 81.6098 48.335V43.43H80.5748V42.155H81.6098V39.575H83.2598V42.155H84.9698V43.43H83.2598V47.81C83.2798 48.08 83.3648 48.28 83.5148 48.41C83.6748 48.54 83.8698 48.605 84.0998 48.605C84.3298 48.605 84.5498 48.565 84.7598 48.485C84.9698 48.405 85.1248 48.34 85.2248 48.29L85.5698 49.595ZM96.478 42.155H98.053L94.753 50H93.343L91.933 46.46L90.523 50H89.113L85.798 42.155H87.373L89.893 48.395L91.003 45.5L89.653 42.17H91.048L91.933 44.615L92.803 42.17H94.198L92.863 45.5L93.973 48.395L96.478 42.155ZM102.411 50.15C101.791 50.15 101.236 50.045 100.746 49.835C100.256 49.615 99.8305 49.315 99.4705 48.935C99.1205 48.555 98.8505 48.125 98.6605 47.645C98.4705 47.155 98.3755 46.635 98.3755 46.085C98.3755 45.535 98.4705 45.015 98.6605 44.525C98.8505 44.035 99.1205 43.605 99.4705 43.235C99.8305 42.855 100.256 42.56 100.746 42.35C101.246 42.13 101.801 42.02 102.411 42.02C103.021 42.02 103.571 42.13 104.061 42.35C104.561 42.56 104.986 42.855 105.336 43.235C105.696 43.605 105.971 44.035 106.161 44.525C106.351 45.015 106.446 45.535 106.446 46.085C106.446 46.635 106.351 47.155 106.161 47.645C105.971 48.125 105.696 48.555 105.336 48.935C104.986 49.315 104.561 49.615 104.061 49.835C103.571 50.045 103.021 50.15 102.411 50.15ZM100.071 46.1C100.071 46.6 100.176 47.05 100.386 47.45C100.596 47.85 100.876 48.165 101.226 48.395C101.576 48.625 101.971 48.74 102.411 48.74C102.841 48.74 103.231 48.625 103.581 48.395C103.941 48.155 104.226 47.835 104.436 47.435C104.646 47.025 104.751 46.575 104.751 46.085C104.751 45.585 104.646 45.135 104.436 44.735C104.226 44.335 103.941 44.02 103.581 43.79C103.231 43.55 102.841 43.43 102.411 43.43C101.971 43.43 101.576 43.55 101.226 43.79C100.876 44.03 100.596 44.35 100.386 44.75C100.176 45.14 100.071 45.59 100.071 46.1ZM112.319 43.58C111.679 43.59 111.109 43.735 110.609 44.015C110.119 44.295 109.769 44.69 109.559 45.2V50H107.909V42.155H109.439V43.91C109.709 43.37 110.064 42.94 110.504 42.62C110.944 42.29 111.409 42.11 111.899 42.08C111.999 42.08 112.079 42.08 112.139 42.08C112.209 42.08 112.269 42.085 112.319 42.095V43.58ZM118.979 50L116.459 46.385L115.169 47.615V50H113.519V39.05H115.169V45.95L118.799 42.17H120.569L117.524 45.455L120.734 50H118.979Z" fill="white"/>
<rect x="13" y="30" width="32" height="1" fill="#FCFCFC"/>
<rect y="2" width="50" height="51" rx="2" fill="white"/>
<path d="M14.36 46V34.64H21.864V35.92H15.8V39.712H20.904V40.912H15.8V46H14.36ZM22.749 40.24C22.749 39.5467 22.8663 38.8693 23.101 38.208C23.3463 37.536 23.6983 36.928 24.157 36.384C24.6263 35.8293 25.197 35.392 25.869 35.072C26.541 34.7413 27.3037 34.576 28.157 34.576C29.1703 34.576 30.0397 34.8107 30.765 35.28C31.4903 35.7387 32.029 36.3307 32.381 37.056L31.245 37.792C31.021 37.312 30.733 36.9333 30.381 36.656C30.0397 36.368 29.6663 36.1653 29.261 36.048C28.8663 35.9307 28.477 35.872 28.093 35.872C27.4637 35.872 26.9037 36 26.413 36.256C25.933 36.512 25.5277 36.8533 25.197 37.28C24.8663 37.7067 24.6157 38.1867 24.445 38.72C24.285 39.2427 24.205 39.7707 24.205 40.304C24.205 40.8907 24.301 41.456 24.493 42C24.6957 42.544 24.973 43.024 25.325 43.44C25.677 43.856 26.093 44.1867 26.573 44.432C27.053 44.6773 27.5757 44.8 28.141 44.8C28.5357 44.8 28.941 44.7307 29.357 44.592C29.773 44.4533 30.1623 44.24 30.525 43.952C30.8877 43.6533 31.1757 43.2693 31.389 42.8L32.589 43.456C32.3543 44.0213 31.9917 44.5013 31.501 44.896C31.0103 45.2907 30.461 45.5893 29.853 45.792C29.2557 45.9947 28.6637 46.096 28.077 46.096C27.2983 46.096 26.5837 45.9307 25.933 45.6C25.2823 45.2587 24.717 44.8107 24.237 44.256C23.7677 43.6907 23.3997 43.0613 23.133 42.368C22.877 41.664 22.749 40.9547 22.749 40.24ZM35.8313 37.296V46H34.3913V34.64H35.6073L42.5513 43.52V34.656H43.9913V46H42.6793L35.8313 37.296Z" fill="#283CDB"/>
</svg>
